<svg width="104" height="28" viewBox="0 0 104 28" fill="none" xmlns="http://www.w3.org/2000/svg">
<path d="M58.3348 23.2375C57.9988 23.2375 57.6308 23.2295 57.2308 23.2135C56.8468 23.1975 56.4548 23.1735 56.0548 23.1415C55.6708 23.1095 55.2868 23.0695 54.9028 23.0215C54.5188 22.9735 54.1668 22.9095 53.8468 22.8295V6.70151C54.1668 6.62151 54.5188 6.55751 54.9028 6.5095C55.2868 6.46151 55.6708 6.42151 56.0548 6.3895C56.4548 6.35751 56.8468 6.33351 57.2308 6.3175C57.6148 6.3015 57.9748 6.2935 58.3108 6.2935C59.2708 6.2935 60.1668 6.3655 60.9988 6.5095C61.8468 6.6535 62.5748 6.9015 63.1828 7.25351C63.8068 7.5895 64.2948 8.0375 64.6468 8.59751C64.9988 9.15751 65.1748 9.84551 65.1748 10.6615C65.1748 11.5735 64.9588 12.3255 64.5268 12.9175C64.0948 13.4935 63.5188 13.9255 62.7988 14.2135C63.7748 14.5015 64.5508 14.9575 65.1268 15.5815C65.7028 16.2055 65.9908 17.0855 65.9908 18.2215C65.9908 19.8855 65.3748 21.1415 64.1428 21.9895C62.9268 22.8215 60.9908 23.2375 58.3348 23.2375ZM56.1508 15.3415V21.1975C56.3268 21.2135 56.5348 21.2295 56.7748 21.2455C56.9828 21.2615 57.2228 21.2775 57.4948 21.2935C57.7828 21.2935 58.1108 21.2935 58.4788 21.2935C59.1668 21.2935 59.8148 21.2535 60.4228 21.1735C61.0468 21.0775 61.5908 20.9175 62.0548 20.6935C62.5188 20.4695 62.8868 20.1575 63.1588 19.7575C63.4468 19.3575 63.5908 18.8535 63.5908 18.2455C63.5908 17.7015 63.4868 17.2455 63.2788 16.8775C63.0708 16.4935 62.7668 16.1895 62.3668 15.9655C61.9828 15.7415 61.5188 15.5815 60.9748 15.4855C60.4308 15.3895 59.8228 15.3415 59.1508 15.3415H56.1508ZM56.1508 13.4695H58.5988C59.1748 13.4695 59.7188 13.4295 60.2308 13.3495C60.7428 13.2695 61.1828 13.1255 61.5508 12.9175C61.9348 12.7095 62.2308 12.4375 62.4388 12.1015C62.6628 11.7655 62.7748 11.3415 62.7748 10.8295C62.7748 10.3495 62.6628 9.94951 62.4388 9.6295C62.2148 9.29351 61.9028 9.02951 61.5028 8.8375C61.1188 8.6295 60.6628 8.4775 60.1348 8.38151C59.6068 8.28551 59.0468 8.23751 58.4548 8.23751C57.8628 8.23751 57.3988 8.24551 57.0628 8.26151C56.7268 8.2775 56.4228 8.30151 56.1508 8.33351V13.4695ZM69.2687 6.46151H71.5967V23.0935H69.2687V6.46151ZM88.026 6.46151C87.53 7.00551 86.97 7.6135 86.346 8.2855C85.722 8.9415 85.066 9.62151 84.378 10.3255C83.706 11.0135 83.034 11.6935 82.362 12.3655C81.69 13.0375 81.058 13.6615 80.466 14.2375C81.154 14.7175 81.882 15.3095 82.65 16.0135C83.418 16.7175 84.17 17.4695 84.906 18.2695C85.642 19.0695 86.33 19.8855 86.97 20.7175C87.626 21.5495 88.17 22.3415 88.602 23.0935H85.866C85.386 22.3415 84.834 21.5895 84.21 20.8375C83.586 20.0695 82.922 19.3415 82.218 18.6535C81.53 17.9495 80.826 17.3015 80.106 16.7095C79.402 16.1175 78.714 15.6135 78.042 15.1975V23.0935H75.714V6.46151H78.042V13.8055C78.602 13.2775 79.218 12.6855 79.89 12.0295C80.562 11.3575 81.226 10.6855 81.882 10.0135C82.538 9.34151 83.154 8.70151 83.73 8.09351C84.322 7.46951 84.818 6.92551 85.218 6.46151H88.026ZM90.8078 23.0935V6.46151H100.96V8.45351H93.1358V13.3975H100.096V15.3415H93.1358V21.1015H101.56V23.0935H90.8078Z" fill="black"/>
<path d="M39.6888 1.07001H41.6888V6.32001H39.6888V1.07001Z" fill="black"/>
<path d="M44.1576 1.07001H46.1576V6.32001H44.1576V1.07001Z" fill="black"/>
<path d="M0.546814 22.7575V1.96751H14.5868V5.89751H5.22681V9.97751H13.5368V13.8175H5.22681V18.8275H15.2768V22.7575H0.546814Z" fill="black"/>
<path d="M29.4202 22.7575C28.3482 20.8535 27.1882 18.9735 25.9402 17.1175C24.6922 15.2615 23.3642 13.5095 21.9562 11.8615V22.7575H18.2602V6.12551H21.3082C21.8362 6.65351 22.4202 7.30151 23.0602 8.06951C23.7002 8.83751 24.3482 9.66151 25.0042 10.5415C25.6762 11.4055 26.3402 12.3095 26.9962 13.2535C27.6522 14.1815 28.2682 15.0775 28.8442 15.9415V6.12551H32.5642V22.7575H29.4202Z" fill="black"/>
<path d="M42.9048 23.0935C41.7368 23.0935 40.7288 22.9335 39.8808 22.6135C39.0328 22.2775 38.3288 21.8215 37.7688 21.2455C37.2248 20.6535 36.8168 19.9575 36.5448 19.1575C36.2888 18.3415 36.1608 17.4455 36.1608 16.4695V6.12551H39.9048V16.1575C39.9048 16.8295 39.9768 17.4055 40.1208 17.8855C40.2808 18.3495 40.4888 18.7335 40.7448 19.0375C41.0168 19.3255 41.3368 19.5335 41.7048 19.6615C42.0888 19.7895 42.5048 19.8535 42.9528 19.8535C43.8648 19.8535 44.6008 19.5735 45.1608 19.0135C45.7368 18.4535 46.0248 17.5015 46.0248 16.1575V6.12551H49.7688V16.4695C49.7688 17.4455 49.6328 18.3415 49.3608 19.1575C49.0888 19.9735 48.6728 20.6775 48.1128 21.2695C47.5528 21.8455 46.8408 22.2935 45.9768 22.6135C45.1128 22.9335 44.0888 23.0935 42.9048 23.0935Z" fill="black"/>
</svg>
