<svg id="Layer_1" data-name="Layer 1" xmlns="http://www.w3.org/2000/svg" viewBox="0 0 195.04 81.12"><defs><style>.cls-1{fill:#1d1d1b;}</style></defs><path class="cls-1" d="M510,312.64h.11l1.4,12.64h-2.91Zm-7.8,25.64h4.94l.94-8.42H512l1,8.42h5l-4.89-38.12h-6.08Zm-5.77-23.66-2.91-14.46h-5.05l5.46,22.78v15.34h4.94V322.94l5.46-22.78h-4.88l-2.92,14.46Zm-13.88-2h.1l1.4,12.64h-2.91Zm-7.8,25.64h4.94l.93-8.42h3.95l1,8.42h5l-4.89-38.12h-6.09Zm-1-38.12H469l-5.09,16.64V300.16h-4.94v38.12h4.94V326.11l1.82-5.2,3.74,17.37h5.05L469.37,315Zm-25.32,21.53a1.18,1.18,0,0,1,1.19,1.2v9.41a1.18,1.18,0,0,1-1.19,1.2h-2.08a1.18,1.18,0,0,1-1.2-1.2v-7.59H440.2v9a4.62,4.62,0,0,0,4.58,4.58H450a4.62,4.62,0,0,0,4.57-4.58V321.33a4.62,4.62,0,0,0-4.57-4.58h-3.64a1.18,1.18,0,0,1-1.2-1.19v-9.42a1.18,1.18,0,0,1,1.2-1.19h2.08a1.17,1.17,0,0,1,1.19,1.19v7.49h4.94v-8.89a4.62,4.62,0,0,0-4.57-4.58h-5.2a4.62,4.62,0,0,0-4.58,4.58v12.38a4.62,4.62,0,0,0,4.58,4.57Zm-9.88-21.53H433.6l-2.86,25.64h-.11l-2.91-25.64h-5l4.88,38.12h6.09Zm-29.49,38.12h12.48V333.5H414V321.64h7v-4.78h-7V305h7.54v-4.79H409.05Zm-14.92,0h12V333.5h-7V300.16h-4.94Zm-15.71,0H390.9V333.5h-7.54V321.64h7v-4.78h-7V305h7.54v-4.79H378.42ZM367.92,305a1.18,1.18,0,0,1,1.2,1.19V332.3a1.18,1.18,0,0,1-1.2,1.2h-3.28V305Zm1.56,33.33a4.62,4.62,0,0,0,4.58-4.58v-29a4.62,4.62,0,0,0-4.58-4.58H359.7v38.12ZM349.2,305a1.18,1.18,0,0,1,1.2,1.19v9.31a1.18,1.18,0,0,1-1.2,1.2h-3.27V305ZM341,300.16v38.12h4.94V321.43h1.76l4.94,16.85h5.26L352.63,321a4.27,4.27,0,0,0,2.71-4.36V304.74a4.62,4.62,0,0,0-4.58-4.58Z" transform="translate(-323 -257.16)"/><path class="cls-1" d="M386.75,263.14A1.18,1.18,0,0,1,388,262h78.61a1.18,1.18,0,0,1,1.2,1.19V289.3a1.18,1.18,0,0,1-1.2,1.2H388a1.18,1.18,0,0,1-1.2-1.2Zm81.37,32.14a4.62,4.62,0,0,0,4.58-4.58v-29a4.62,4.62,0,0,0-4.58-4.58H386.39a4.62,4.62,0,0,0-4.58,4.58v29a4.62,4.62,0,0,0,4.58,4.58Z" transform="translate(-323 -257.16)"/><path class="cls-1" d="M337.94,317.4h1.25V321h-1.25M333,321h-6.26V317.4H333" transform="translate(-323 -257.16)"/><path class="cls-1" d="M333,313.73v-7.59a1.18,1.18,0,0,0-1.2-1.2h-2.08a1.18,1.18,0,0,0-1.2,1.2v6.5h-4.83v-7.9a4.62,4.62,0,0,1,4.57-4.58h5.1a4.62,4.62,0,0,1,4.58,4.58v29a4.62,4.62,0,0,1-4.58,4.58h-5.1a4.62,4.62,0,0,1-4.57-4.58v-7.9h4.83v6.5a1.18,1.18,0,0,0,1.2,1.19h2.08a1.18,1.18,0,0,0,1.2-1.19v-7.65" transform="translate(-323 -257.16)"/><path class="cls-1" d="M366.26,262h4.42v33.33h4.94V262H380v-4.79H366.26Zm-10.87,1.19a1.18,1.18,0,0,1,1.2-1.19h2.08a1.18,1.18,0,0,1,1.2,1.19v9.62h4.83v-11a4.62,4.62,0,0,0-4.57-4.58H355a4.62,4.62,0,0,0-4.58,4.58v29a4.62,4.62,0,0,0,4.58,4.58h5.1a4.62,4.62,0,0,0,4.57-4.58v-11h-4.83v9.62a1.18,1.18,0,0,1-1.2,1.2h-2.08a1.18,1.18,0,0,1-1.2-1.2Zm-9.3-6h-4.94v38.12h4.94Zm-7.23,0h-4.94l-2.86,25.64H331L328,257.16h-5l4.89,38.12H334Z" transform="translate(-323 -257.16)"/><path class="cls-1" d="M510,269.64h.11l1.4,12.64h-2.91Zm-7.8,25.64h4.94l.94-8.42H512l1,8.42h5l-4.89-38.12h-6.08Zm-2.29-38.12H495v38.12h4.94ZM484.45,262a1.18,1.18,0,0,1,1.2,1.19v9.31a1.18,1.18,0,0,1-1.2,1.2h-3.27V262Zm-8.21-4.79v38.12h4.94V278.43h1.76l4.94,16.85h5.26L487.88,278a4.27,4.27,0,0,0,2.71-4.36V261.74a4.62,4.62,0,0,0-4.58-4.58Z" transform="translate(-323 -257.16)"/></svg>